/* XPM */
static char *_c12f6997a52423480989c32266d197fFawfR4OPzmvtbb75[] = {
/* columns rows colors chars-per-pixel */
"128 128 4 1 ",
"  c #7B6770",
". c #2E101E",
"X c #321723",
"o c #17040C",
/* pixels */
"                                                  ....XXoooooooooooooooo                   ....ooo..          oooooooo.. ..XXXXX",
"                                                  ....XXoooooooooooooooo                   ....ooo..          oooooooo.. ..XXXXX",
"                                                  ....XXoooooooooooooooo                   ....ooo..          oooooooo.. ..XXXXX",
"      XXXXXX          XXXXXXXXXXX.....................XXXXXXoooooooooooo     XX..      ......ooo....XX  ......oooooo.....XXXXXXX",
"      XXXXXX          XXXXXXXXXXX.....................XXXXXXoooooooooooo     XX..      ......ooo....XX  ......oooooo.....XXXXXXX",
"    XXXXXXXXXXXX  XXXXXXXXXXXXXXXXXXXXXXXXXXXXXXXXXXXXXXXX..oooooo....       XXXXXXXX      ....o....      ......oooo....XXXXXXXX",
"    XXXXXXXXXXXX  XXXXXXXXXXXXXXXXXXXXXXXXXXXXXXXXXXXXXXXX..oooooo....       XXXXXXXX      ....o....      ......oooo....XXXXXXXX",
"  XXXXXXXXXXXXXXXXXXXXXXXXXXXXXXXXXXXXXXXXXXXXX     ..XXXXXXoooooo....  XXXXXXXXXXXXXXXXX    ...XXXXXX....  ....oooo....XXXXXXXX",
"  XXXXXXXXXXXXXXXXXXXXXXXXXXXXXXXXXXXXXXXXXXXXX     ..XXXXXXoooooo....  XXXXXXXXXXXXXXXXX    ...XXXXXX....  ....oooo....XXXXXXXX",
"XXXXXXXXXXXXXXXXXXXXXXXXXXXXXXXXXXXXXXXXXXXXX   ..XXXXXX....oooo..XX  XXXXXXXXXXXXXXXXX....    .XXXXXX      XX..oooo..XXXXXXXXXX",
"XXXXXXXXXXXXXXXXXXXXXXXXXXXXXXXXXXXXXXXXXXXXX   ..XXXXXX....oooo..XX  XXXXXXXXXXXXXXXXX....    .XXXXXX      XX..oooo..XXXXXXXXXX",
"XXXXXXXXXXXXXXXXXXXXXXXXXXXXXXXXXXXXXXXXXXX     ..XXXXXX..oooooo..XXXXXXXXXXXXXXXXXXXXX..XX  .. XXXXXXXX  XX....ooooXXXXXXXXXXXX",
"XXXXXXXXXXXXXXXXXXXXXXXXXXXXXXXXXXXXXXXXXXX     ..XXXXXX..oooooo..XXXXXXXXXXXXXXXXXXXXX..XX  .. XXXXXXXX  XX....ooooXXXXXXXXXXXX",
"XXXXXXXXXXXXXXXXXXXXXXXXXXXXXXXXXXXXXXXXX    ...XXXX....XXXXooooXXXXXXXXXXXXXXXXXXXXXXXXXXXXXXXXXXXXXXXXXXXXXX..ooooXXXXXXXXXXXX",
"XXXXXXXXXXXXXXXXXXXXXXXXXXXXXXXXXXXXXXXXX    ...XXXX....XXXXooooXXXXXXXXXXXXXXXXXXXXXXXXXXXXXXXXXXXXXXXXXXXXXX..ooooXXXXXXXXXXXX",
"XXXXXXXXXXXXXXXXXXXXXXXXXXXXXXXXXXXXXXXXX    ...XXXX....XXXXooooXXXXXXXXXXXXXXXXXXXXXXXXXXXXXXXXXXXXXXXXXXXXXX..ooooXXXXXXXXXXXX",
"XXXXXXXXXXXXXXXXXXXXXXXXXXXXXXXXXXXXXXXXX  ....XXX....XXXXoooooo....XXXXXXXXXXXXXXXXXXXXXXXXXXX...XXXXXXXX..XX..ooooXXXXXXXXXXXX",
"XXXXXXXXXXXXXXXXXXXXXXXXXXXXXXXXXXXXXXXXX  ....XXX....XXXXoooooo....XXXXXXXXXXXXXXXXXXXXXXXXXXX...XXXXXXXX..XX..ooooXXXXXXXXXXXX",
"XXXXXXXXXXXX  XXXXXXXXXXXXXXXXXXXXXXXXXXXXX..XXXXX....XXXXoooooo..XXXXXXXXXXXXXXXXXXXXXXXXXXXXX.XXXXXXXXXX..XX..ooooXXXXX  XXXXX",
"XXXXXXXXXXXX  XXXXXXXXXXXXXXXXXXXXXXXXXXXXX..XXXXX....XXXXoooooo..XXXXXXXXXXXXXXXXXXXXXXXXXXXXX.XXXXXXXXXX..XX..ooooXXXXX  XXXXX",
"XXXXXXXXXXXXXX  XXXXXXXXXXXXXXXXXXXXXXXXXXXXXXXXXXXXXXXXXXXXoooo..XXXXXXXXXXXXXXXXXXXXXXXXXXXXX.XXXXXXXX....XX..ooooXXXXXXX  XXX",
"XXXXXXXXXXXXXX  XXXXXXXXXXXXXXXXXXXXXXXXXXXXXXXXXXXXXXXXXXXXoooo..XXXXXXXXXXXXXXXXXXXXXXXXXXXXX.XXXXXXXX....XX..ooooXXXXXXX  XXX",
"XXXXXXXXXXXXXXXXXXXXXXXXXXXXXXXXXXXXXXXXXXXXXXXXXXXXXXXXXXXXoooo..XXXXXXXXXXXXXXXXXXXXXXXXXXXXXXXXXXXX  ........ooooXXXXXXXXXXXX",
"XXXXXXXXXXXXXXXXXXXXXXXXXXXXXXXXXXXXXXXXXXXXXXXXXXXXXXXXXXXXoooo..XXXXXXXXXXXXXXXXXXXXXXXXXXXXXXXXXXXX  ........ooooXXXXXXXXXXXX",
"XXXXXXXXXXXXXXXXXXXXXXXXXXXXX  XXXXXXXXXXXXXXXXXXXXXXXXXXX..ooooXXXXXXXXXXXXXXXXXXXXXXXXXXXXXXXXXXXX    ........oooo....XXXXXXXX",
"XXXXXXXXXXXXXXXXXXXXXXXXXXXXX  XXXXXXXXXXXXXXXXXXXXXXXXXXX..ooooXXXXXXXXXXXXXXXXXXXXXXXXXXXXXXXXXXXX    ........oooo....XXXXXXXX",
"    ....XXXXXXXXXXXXXXXXXXX  XXXXXXXXXXXXXXXXXXXXXXXXXXXXX..oooo  ....  XXXXXXXXX  XXXXXXXXXXXXXXXXX  ....XX....oooo.....XXXXXXX",
"    ....XXXXXXXXXXXXXXXXXXX  XXXXXXXXXXXXXXXXXXXXXXXXXXXXX..oooo  ....  XXXXXXXXX  XXXXXXXXXXXXXXXXX  ....XX....oooo.....XXXXXXX",
"    ....XXXXXXXXXXXXXXXXXXX  XXXXXXXXXXXXXXXXXXXXXXXXXXXXX..oooo  ....  XXXXXXXXX  XXXXXXXXXXXXXXXXX  ....XX....oooo.....XXXXXXX",
"XX      ..XXXXXXXXXXXXXXXXXXXXXXXXXXXXXXXXXXXXXXXXXX........oooo      XXXXXXXXXXXXXXXXXXXXXXXXXXXXXXXXXX........oooo.......XXXX.",
"XX      ..XXXXXXXXXXXXXXXXXXXXXXXXXXXXXXXXXXXXXXXXXX........oooo      XXXXXXXXXXXXXXXXXXXXXXXXXXXXXXXXXX........oooo.......XXXX.",
"....    ........XXXXXXXXXXXXXXXXXXXXXXXXXXXXXXXX..........oooooo      XXXXXXXXXXXXX....XXXXXXXXXXXXXXXXX......oooooooo.......   ",
"....    ........XXXXXXXXXXXXXXXXXXXXXXXXXXXXXXXX..........oooooo      XXXXXXXXXXXXX....XXXXXXXXXXXXXXXXX......oooooooo.......   ",
"......XX    ........XX.............XXXXXXXXXX.............oooooo....       ........XX.................ooooooooooooooooooo....  .",
"......XX    ........XX.............XXXXXXXXXX.............oooooo....       ........XX.................ooooooooooooooooooo....  .",
"........      ........................................oooooooooooo..XX     .........................oooooooooooooooooooooooooooo",
"........      ........................................oooooooooooo..XX     .........................oooooooooooooooooooooooooooo",
"oooooooooooooooooooooooooooooooooooooooooooooooooooooooooooooooooooooooooooooooooooooooooooooooooooooooooooooooooooooooooooooooo",
"oooooooooooooooooooooooooooooooooooooooooooooooooooooooooooooooooooooooooooooooooooooooooooooooooooooooooooooooooooooooooooooooo",
"oooooooooooooooooooooooooooooooooooooooooooooooooooooooooooooooooooooooooooooooooooooooooooooooooooooooooooooooooooooooooooooooo",
"oooooooooooooooooooooooooooooooooooooooooooooooooooooooooooooooooooooooooooooooooooooooooooooooooooooooooooooooooooooooooooooooo",
"oooooooooooooooooooooooooooooooooooooooooooooooooooooooooooooooooooooooooooooooooooooooooooooooooooooooooooooooooooooooooooooooo",
"                ....ooooooooooooooo  ..           ..  ..oooooooooooooo               oo        .oo....  ....oooooooooo..XXX    .",
"                ....ooooooooooooooo  ..           ..  ..oooooooooooooo               oo        .oo....  ....oooooooooo..XXX    .",
"    XXXXXX          ....ooooo..oo....      XXXXXXXXX..  ..ooooooooooXXXX                 XXXXXXXXXXXXX        ooooooXX  X    ..X",
"    XXXXXX          ....ooooo..oo....      XXXXXXXXX..  ..ooooooooooXXXX                 XXXXXXXXXXXXX        ooooooXX  X    ..X",
"XXXXXXXXXXXX        ....ooo....  ......    XXXXXXXXXXX......oooo    XXXXXXXXX    XXXXXXXX  XXXXXXXXXXX          oooo..  XXXXX...",
"XXXXXXXXXXXX        ....ooo....  ......    XXXXXXXXXXX......oooo    XXXXXXXXX    XXXXXXXX  XXXXXXXXXXX          oooo..  XXXXX...",
"XXXXXXXXXXXXXX          ooo..XX  ....    XXXXXXXXXXXXXXX....oooo      XXXXXXXXXXXXXXXXXXXXXXXXXXXXXX        ....oooo..XXXXXXXXX.",
"XXXXXXXXXXXXXX          ooo..XX  ....    XXXXXXXXXXXXXXX....oooo      XXXXXXXXXXXXXXXXXXXXXXXXXXXXXX        ....oooo..XXXXXXXXX.",
"XXXXXXXXXXXXXXXX        ooo..XX..      XXXXXXXXXXXXXXXXX....oooo  ..XXXXXXXXXXXXXXXXX  XXXXXXXXXXXXX      ....XXooooooXXXXXXXXX ",
"XXXXXXXXXXXXXXXX        ooo..XX..      XXXXXXXXXXXXXXXXX....oooo  ..XXXXXXXXXXXXXXXXX  XXXXXXXXXXXXX      ....XXooooooXXXXXXXXX ",
"XXXXXXXXXXXXXXXXXXXX    ooo....XXXX  XXXXXXXXXXXXXXXXXXXXX..oooo....XXXXXXXXXXXXXXXXXXXXXXXXXXXXXXXXXX  XXXXXXXXoooo..XXXXXXXXXX",
"XXXXXXXXXXXXXXXXXXXX    ooo....XXXX  XXXXXXXXXXXXXXXXXXXXX..oooo....XXXXXXXXXXXXXXXXXXXXXXXXXXXXXXXXXX  XXXXXXXXoooo..XXXXXXXXXX",
"XXXXXXXXXXXXXXXXXXXXXX  ooo......XXXXXXXXXXXXXXXXXXXXXXXXXXXoooo....XXXXXXXXXXXXXXXXXXXXXXXXXXXXXXXXXXXXXXXX....oooo..XXXXXXXXXX",
"XXXXXXXXXXXXXXXXXXXXXX  ooo......XXXXXXXXXXXXXXXXXXXXXXXXXXXoooo....XXXXXXXXXXXXXXXXXXXXXXXXXXXXXXXXXXXXXXXX....oooo..XXXXXXXXXX",
"XXXXXXXXXXXXXXXXXXXXXX  ooo......XXXXXXXXXXXXXXXXXXXXXXXXXXXoooo....XXXXXXXXXXXXXXXXXXXXXXXXXXXXXXXXXXXXXXXX....oooo..XXXXXXXXXX",
"XXXXXXXXXXXXXXXXXXXXXXXXoooooXX  XXXXXXXXXXXXXXXXXXXXXXXXXXXoooo....XXXXXXXXXXXXXXXXXXXXXXXXXXXXXXXXXXXXXX......oooo....XXXXXXXX",
"XXXXXXXXXXXXXXXXXXXXXXXXoooooXX  XXXXXXXXXXXXXXXXXXXXXXXXXXXoooo....XXXXXXXXXXXXXXXXXXXXXXXXXXXXXXXXXXXXXX......oooo....XXXXXXXX",
"XX  XXXXXXXXXXXXXXXXXXXXooo..XXXXXXXXXXXXXXXXXXXXXXXXXXXXXXXoooo....XXXXXXXXXXXXXXXXXXXXXXXXXXXXXXXXXXXXXX......oooooo...XXXXXXX",
"XX  XXXXXXXXXXXXXXXXXXXXooo..XXXXXXXXXXXXXXXXXXXXXXXXXXXXXXXoooo....XXXXXXXXXXXXXXXXXXXXXXXXXXXXXXXXXXXXXX......oooooo...XXXXXXX",
"  XXXXXXXXXXXXXXXXXXXXXXooo..XXXXXXXX  XXXXXXXXXXXXX  XXXXXXoooooo..XXXXXXXXXXXXXXXXXXX  XXXXXXXXXXXXXXXXXXXXX..ooooooooXXXXXXXX",
"  XXXXXXXXXXXXXXXXXXXXXXooo..XXXXXXXX  XXXXXXXXXXXXX  XXXXXXoooooo..XXXXXXXXXXXXXXXXXXX  XXXXXXXXXXXXXXXXXXXXX..ooooooooXXXXXXXX",
"XXXXXXXXXXXXXXXXXXXXXXXXooo..XXXXXXXXXXXXXXXXXXXXX  XXXXXXXXoooo..XXXXXXXXXXXXXXXXXXXXX    XXXXXXXXXXXXXXXXXXXoooooooo..XXXXXXXX",
"XXXXXXXXXXXXXXXXXXXXXXXXooo..XXXXXXXXXXXXXXXXXXXXX  XXXXXXXXoooo..XXXXXXXXXXXXXXXXXXXXX    XXXXXXXXXXXXXXXXXXXoooooooo..XXXXXXXX",
"XXXXXXXXXXXXXXXXXXXXXX..ooo..XXXXXXXXXXXXXXXXXXXXXXXXXXXXXXXoooo..XXXXXXXXXXXXXXXXXXXXXXXXXXXXXXXXXXXXXXXXXXXXoooooo..XXXXXXXXXX",
"XXXXXXXXXXXXXXXXXXXXXX..ooo..XXXXXXXXXXXXXXXXXXXXXXXXXXXXXXXoooo..XXXXXXXXXXXXXXXXXXXXXXXXXXXXXXXXXXXXXXXXXXXXoooooo..XXXXXXXXXX",
"XXXXXXXX....    XXXXXX..ooo..XXXXXXXXXXXXXXXXXXXXXXXXXXX....oooo..XXXXXXXXXXXXXXXXXXXXXXXXXXXXXXXXXXXXXXXXXXXXoooooo....XXXXXXXX",
"XXXXXXXX....    XXXXXX..ooo..XXXXXXXXXXXXXXXXXXXXXXXXXXX....oooo..XXXXXXXXXXXXXXXXXXXXXXXXXXXXXXXXXXXXXXXXXXXXoooooo....XXXXXXXX",
"XXXXXXXX....    XXXXXX..ooo..XXXXXXXXXXXXXXXXXXXXXXXXXXX....oooo..XXXXXXXXXXXXXXXXXXXXXXXXXXXXXXXXXXXXXXXXXXXXoooooo....XXXXXXXX",
"XXXXXX..      XXXX......ooo..XXXXXXXXXX....XXXXXXXXXXX......oooo....XX..XXXXXXXXXXXXXXX....XXXXXXXXXXXXXXXXXXX..oooo.....XXXXXXX",
"XXXXXX..      XXXX......ooo..XXXXXXXXXX....XXXXXXXXXXX......oooo....XX..XXXXXXXXXXXXXXX....XXXXXXXXXXXXXXXXXXX..oooo.....XXXXXXX",
"........    ..........ooooo....XXXXXXXXXX  .....XXXX........oooo........XXXXXXXXXXXXX........XXXXXXXXXXXXXXX....oooooo.....XX...",
"........    ..........ooooo....XXXXXXXXXX  .....XXXX........oooo........XXXXXXXXXXXXX........XXXXXXXXXXXXXXX....oooooo.....XX...",
"....    XX............ooooo..........XX..XX       ........oooooooo.........XXXXXXXX..........XXXXXXXXX..........oooooooo........",
"....    XX............ooooo..........XX..XX       ........oooooooo.........XXXXXXXX..........XXXXXXXXX..........oooooooo........",
"..      ............ooooooooo..oo........oo.....  ....oooooooooooooo........................................oooooooooooooooooooo",
"..      ............ooooooooo..oo........oo.....  ....oooooooooooooo........................................oooooooooooooooooooo",
"oooooooooooooooooooooooooooooooooooooooooooooooooooooooooooooooooooooooooooooooooooooooooooooooooooooooooooooooooooooooooooooooo",
"oooooooooooooooooooooooooooooooooooooooooooooooooooooooooooooooooooooooooooooooooooooooooooooooooooooooooooooooooooooooooooooooo",
"oooooooooooooooooooooooooooooooooooooooooooooooooooooooooooooooooooooooooooooooooooooooooooooooooooooooooooooooooooooooooooooooo",
"oooooooooooooooooooooooooooooooooooooooooooooooooooooooooooooooooooooooooooooooooooooooooooooooooooooooooooooooooooooooooooooooo",
"oooooooooooooooooooooooooooooooooooooooooooooooooooooooooooooooooooooooooooooooooooooooooooooooooooooooooooooooooooooooooooooooo",
"ooXX                    ...oooo..                     XXXX....ooooooooooo..                             ........oo           ...",
"ooXX                    ...oooo..                     XXXX....ooooooooooo..                             ........oo           ...",
"XXXX..              ..   ..XX......               XX      XX  oooooo..oo.........               ..................         .....",
"XXXX..              ..   ..XX......               XX      XX  oooooo..oo.........               ..................         .....",
"XXXX..    ........XX..XXXXXXXXX  XXXX  XX      ...XXXXXXXXXXXX  oooo...................XXXXXXXXXXXXXXXXX....               .....",
"XXXX..    ........XX..XXXXXXXXX  XXXX  XX      ...XXXXXXXXXXXX  oooo...................XXXXXXXXXXXXXXXXX....               .....",
"  XX    XXXX..      XXXX.XXXXXXXXXXXXXXXX....XXXXXXXXXXXXXXXXX  oooo.................XXXXXXXXXXXXXXXXXXXXX....XX......XXXXX....X",
"  XX    XXXX..      XXXX.XXXXXXXXXXXXXXXX....XXXXXXXXXXXXXXXXX  oooo.................XXXXXXXXXXXXXXXXXXXXX....XX......XXXXX....X",
"      XXXXXX..........XX.XXXXXXXX..........XXXXXXXXXXXXX..  XX  oooo....X..........XXXXXXXXXXXXXXXXXXXXXXXXXXXXXXXXXXXXXX..XXXXX",
"      XXXXXX..........XX.XXXXXXXX..........XXXXXXXXXXXXX..  XX  oooo....X..........XXXXXXXXXXXXXXXXXXXXXXXXXXXXXXXXXXXXXX..XXXXX",
"..  XXXXXXXXXXXXXXXXXXXXXXXXX......XXXXXXXXXXXXXXXXXXXXX..XXXX..ooooXXXX.  ..XXXXXXXXXXXXXXXXXXXXXXXXXXXXXXXXXXXXXXXXXXX   XX..X",
"..  XXXXXXXXXXXXXXXXXXXXXXXXX......XXXXXXXXXXXXXXXXXXXXX..XXXX..ooooXXXX.  ..XXXXXXXXXXXXXXXXXXXXXXXXXXXXXXXXXXXXXXXXXXX   XX..X",
"..  XXXXXXXXXXXXXXXXXXXXXXXXX......XXXXXXXXXXXXXXXXXXXXX..XXXX..ooooXXXX.  ..XXXXXXXXXXXXXXXXXXXXXXXXXXXXXXXXXXXXXXXXXXX   XX..X",
"    XXXXXXXXXXXXXXXXXXXXXXXXXXXXXXXXXXXXXXXXXXXXXXXXXXXX  XXXX..ooooXXXX     ..XXXXXXXXXXXXXX..   ..XXXXXXXXXXXXXXXX..     XXXXX",
"    XXXXXXXXXXXXXXXXXXXXXXXXXXXXXXXXXXXXXXXXXXXXXXXXXXXX  XXXX..ooooXXXX     ..XXXXXXXXXXXXXX..   ..XXXXXXXXXXXXXXXX..     XXXXX",
"  XXXXXXXXXXXXXXXXXXXXXXXXXXXXXXXXXXXXXXXXXXXXX.    XX..XXXXXX..ooooXXXXX    ..XXXXXXXXXXXXXXXX.    ..XXXXXXXXXXXXXXXX.. ..XXXXX",
"  XXXXXXXXXXXXXXXXXXXXXXXXXXXXXXXXXXXXXXXXXXXXX.    XX..XXXXXX..ooooXXXXX    ..XXXXXXXXXXXXXXXX.    ..XXXXXXXXXXXXXXXX.. ..XXXXX",
"XXXXXXXXXXXXXXXXXXXXXXXXXXXXXXXXXXXXXXX..XX.......  XX....XXXX..ooooXXXXXXXXXXXXXXXXXXXXXXXXXXX.XX    ..XXXXXXXXXXXXXXXXXXXXXXXX",
"XXXXXXXXXXXXXXXXXXXXXXXXXXXXXXXXXXXXXXX..XX.......  XX....XXXX..ooooXXXXXXXXXXXXXXXXXXXXXXXXXXX.XX    ..XXXXXXXXXXXXXXXXXXXXXXXX",
"ooXX..XXXXXXXXXXXXXXXXXXXXXXXXXXXXX.............XXXXXXXX..XXXXXXoooo....XXXXXXXXXXXXXXXXXXXXXXX.XX..  ..XXXXXXXXXXXXXXXXXXXXXXXX",
"ooXX..XXXXXXXXXXXXXXXXXXXXXXXXXXXXX.............XXXXXXXX..XXXXXXoooo....XXXXXXXXXXXXXXXXXXXXXXX.XX..  ..XXXXXXXXXXXXXXXXXXXXXXXX",
"ooooXX....XXXXXXXXXXXXXXXXXXXXXXX  ............XXXXXXXXXXXXXXX..oooooo...XXXXXXXXXXXXXXXXXXXXXXXXX      XXXXXXXXXXXXXXXXXXXXXXXX",
"ooooXX....XXXXXXXXXXXXXXXXXXXXXXX  ............XXXXXXXXXXXXXXX..oooooo...XXXXXXXXXXXXXXXXXXXXXXXXX      XXXXXXXXXXXXXXXXXXXXXXXX",
"ooooXX........XXXXXXXXXXXXXXXXX  ..      XX..XXXXXXXXXXXXXXXXX..oooooooo.XXXXXXXXXXXXXXXXXXXXXXXXXXXXX  XXXXXXXXXXXXXXXXXXXXXXXX",
"ooooXX........XXXXXXXXXXXXXXXXX  ..      XX..XXXXXXXXXXXXXXXXX..oooooooo.XXXXXXXXXXXXXXXXXXXXXXXXXXXXX  XXXXXXXXXXXXXXXXXXXXXXXX",
"ooXXXX..........XXXXXXXXXXXXX    ......XXXXXXXXXXXXXXXXXXXXX....oooooo...XXXXXXXXXXXXXXXXXXXXXXXXXXX  ..XXXXXXXX....XXXXXXXXXXXX",
"ooXXXX..........XXXXXXXXXXXXX    ......XXXXXXXXXXXXXXXXXXXXX....oooooo...XXXXXXXXXXXXXXXXXXXXXXXXXXX  ..XXXXXXXX....XXXXXXXXXXXX",
"ooXXXX..........XXXXXXXXXXXXX    ......XXXXXXXXXXXXXXXXXXXXX....oooooo...XXXXXXXXXXXXXXXXXXXXXXXXXXX  ..XXXXXXXX....XXXXXXXXXXXX",
"..XXXXXX........XXXXXXXXXXX  ........XXXXXXXXXXXXXXXXXXXXXXX....ooooooooXXXXXXXXXXXXXXXXXXXXXXXXXXXXXXXXXXXXXXXX    ..XXXXXXXXXX",
"..XXXXXX........XXXXXXXXXXX  ........XXXXXXXXXXXXXXXXXXXXXXX....ooooooooXXXXXXXXXXXXXXXXXXXXXXXXXXXXXXXXXXXXXXXX    ..XXXXXXXXXX",
"....XXXXXXXXXX..XXXXXX  .........XXXXXXXXXXXXXXXXXXXXXXXXXXX....oooooo..XXXXXXXXXXXXXXXXXXXXXXXXXXXXXXXXXXXXXXXX  XXXXXXXXXXXXX.",
"....XXXXXXXXXX..XXXXXX  .........XXXXXXXXXXXXXXXXXXXXXXXXXXX....oooooo..XXXXXXXXXXXXXXXXXXXXXXXXXXXXXXXXXXXXXXXX  XXXXXXXXXXXXX.",
"....XXXXXXXXXXXXXXXXXX...XXXXXXXXXXXXXXXXXXXXXXXXXXXXXXXXXXX....ooooXXXXXXXXXXXXXXXXXXXXXXXXXXXXXXXXXXXXXXXXXXXXXXXXXXXXXXXXXXX.",
"....XXXXXXXXXXXXXXXXXX...XXXXXXXXXXXXXXXXXXXXXXXXXXXXXXXXXXX....ooooXXXXXXXXXXXXXXXXXXXXXXXXXXXXXXXXXXXXXXXXXXXXXXXXXXXXXXXXXXX.",
"........XXXXXXXXXXXX....XXXXXXXXXXXXXXXXXXXXXXXXXXXXXXXXXX......ooooXXXX.XXXXXXXXXXXXXXXXXXXXXXXXXXXXXXXXXXXXXXXXXXXXXXXXXX  ...",
"........XXXXXXXXXXXX....XXXXXXXXXXXXXXXXXXXXXXXXXXXXXXXXXX......ooooXXXX.XXXXXXXXXXXXXXXXXXXXXXXXXXXXXXXXXXXXXXXXXXXXXXXXXX  ...",
"..........XXXXXXXXXXXXXXXXXXXXXXXXXXXXXXXXXXXXXXXXXXXXXXXXXX....oooo.....XXXXXXXXXXXXXXXXXXXXXXXXXXXXXXXXXXXXXXXXXXXXXXXXXX  ...",
"..........XXXXXXXXXXXXXXXXXXXXXXXXXXXXXXXXXXXXXXXXXXXXXXXXXX....oooo.....XXXXXXXXXXXXXXXXXXXXXXXXXXXXXXXXXXXXXXXXXXXXXXXXXX  ...",
"..........XXXXXXXXXXXXXXXXXXXXXXXXXXXXXXXXXXXXXXXXXXXXXXXX......oooo.......XXXXXX......XXXXXXXXXXXXXXXXXXXXXXXXXXXXXXXXX   .....",
"..........XXXXXXXXXXXXXXXXXXXXXXXXXXXXXXXXXXXXXXXXXXXXXXXX......oooo.......XXXXXX......XXXXXXXXXXXXXXXXXXXXXXXXXXXXXXXXX   .....",
"..........XXXXXXXXXXXXXXXXXXXXXXXXXXXXXXXXXXXXXXXXXXXXXXXX......oooo.......XXXXXX......XXXXXXXXXXXXXXXXXXXXXXXXXXXXXXXXX   .....",
"oo................XXXXXXXXXXXXXXXXXXXXXXXXXXXXXXXXXXXXXXXX..oooooooo..oo...XXXX    XX........XXXXXXXXXXXXXXXXXXXXXXXXX  ........",
"oo................XXXXXXXXXXXXXXXXXXXXXXXXXXXXXXXXXXXXXXXX..oooooooo..oo...XXXX    XX........XXXXXXXXXXXXXXXXXXXXXXXXX  ........",
"oooo.......................................XXXX.....XX    ..ooooooooooooo..XXXXXXXX............XXXXXXXXXXXXXXXXXXXXXXX..........",
"oooo.......................................XXXX.....XX    ..ooooooooooooo..XXXXXXXX............XXXXXXXXXXXXXXXXXXXXXXX.........."
};
